PathFileType	4	(X/Y/Z)	./resultDataOpenSim/trcMotMarkerGrf/sub06/qtm-15-04.trc
DataRate	CameraRate	NumFrames	NumMarkers	Units	OrigDataRate	OrigDataStartFrame	OrigNumFrames
250.000000	250.000000	9	24	m	250.000000	267	533
Frame#	Time	L.Toe.Tip			R.Toe.Tip			L.Ankle.Lat			R.Ankle.Lat			L.Ankle.Med			R.Ankle.Med			L.Heel			R.Heel			L.Knee.Lat			R.Knee.Lat			L.Knee.Med			R.Knee.Med			L.Thigh.Upper			R.Thigh.Upper			L.ASIS			R.ASIS			V.Sacral			L.Acromium			R.Acromium			C7			L.Elbow			R.Elbow			L.Wrist.Lat			R.Wrist.Lat
		X1	Y1	Z1	X2	Y2	Z2	X3	Y3	Z3	X4	Y4	Z4	X5	Y5	Z5	X6	Y6	Z6	X7	Y7	Z7	X8	Y8	Z8	X9	Y9	Z9	X10	Y10	Z10	X11	Y11	Z11	X12	Y12	Z12	X13	Y13	Z13	X14	Y14	Z14	X15	Y15	Z15	X16	Y16	Z16	X17	Y17	Z17	X18	Y18	Z18	X19	Y19	Z19	X20	Y20	Z20	X21	Y21	Z21	X22	Y22	Z22	X23	Y23	Z23	X24	Y24	Z24

267	1.064	0.12340271	-0.065400029	-0.038566022	0.88680777	0.15885233	0.054927595	0.02274818	0.0038822063	-0.091657275	0.7512911	0.14747137	0.085572991	0.017950779	0.026283219	-0.0072285696	0.75941441	0.17834849	-0.0013602422	-0.058242894	0.002975514	-0.055864702	0.70408477	0.11213748	0.024421352	0.17136337	0.34834406	-0.10949826	0.63087383	0.51368541	0.11541013	0.15341509	0.35888446	0.012866243	0.61046677	0.49349852	-0.0049446958	0.25972735	0.71821836	-0.1768547	0.34807403	0.74139337	0.16915335	0.35102862	0.763367	-0.15328327	0.41469594	0.78434453	0.086907068	0.20257837	0.85814794	0.010205961	0.40892547	1.2467801	-0.1944035	0.38093057	1.2390214	0.16146037	0.32390685	1.287273	-0.02704918	0.51103942	0.94250753	-0.2762135	0.17315733	1.0122748	0.22391196	0.75387951	0.9727221	-0.21187403	0.15502966	0.80530963	0.34269809
268	1.068	0.12357058	-0.065338632	-0.038391003	0.89466433	0.15710568	0.053075568	0.024170263	0.0050093737	-0.091882254	0.75916633	0.1454104	0.083889854	0.019467405	0.027351328	-0.0074518342	0.76700567	0.17629777	-0.0029744802	-0.05679436	0.0051096655	-0.056181801	0.7119971	0.10991949	0.022862548	0.17722528	0.34777085	-0.10916102	0.63887453	0.51151774	0.11434002	0.15907987	0.35848109	0.013250478	0.61779531	0.49074987	-0.0063485029	0.26617706	0.71727518	-0.17611145	0.3564569	0.73996359	0.16962607	0.35779832	0.76271876	-0.15304168	0.42259482	0.78387491	0.087427671	0.20921828	0.85761534	0.0112384	0.41576136	1.2460619	-0.19403834	0.38861664	1.237883	0.16185977	0.3310323	1.2864129	-0.026476714	0.52030196	0.94242933	-0.27487935	0.17981829	1.0123932	0.22444975	0.76270405	0.97546656	-0.2103363	0.15941497	0.80566545	0.34309117
269	1.072	0.12373118	-0.065277018	-0.038233223	0.90177063	0.15481506	0.051389816	0.025682013	0.0061942664	-0.092084087	0.76627773	0.14305268	0.082227709	0.021145693	0.028446047	-0.007677404	0.77396667	0.1739287	-0.0045530396	-0.055202432	0.0073195265	-0.056412502	0.71913272	0.10749493	0.021306379	0.18326272	0.34715973	-0.10882393	0.64688361	0.50941367	0.113225	0.16502982	0.35797315	0.013626774	0.62511273	0.48805216	-0.0077896842	0.27273513	0.71634383	-0.17538536	0.36493913	0.73862727	0.1700607	0.36468161	0.76204683	-0.15279429	0.43055919	0.78342274	0.087882274	0.21594185	0.8570782	0.012285212	0.42259376	1.2453706	-0.19367161	0.39632834	1.236736	0.1623039	0.33817705	1.2855586	-0.025854541	0.52948417	0.94237356	-0.27354444	0.18631487	1.0126631	0.2252974	0.77143737	0.97806458	-0.20880476	0.16402627	0.8059303	0.34342906
270	1.076	0.12387347	-0.065225522	-0.038104367	0.90818302	0.15197203	0.049835695	0.027283443	0.0074369265	-0.092279972	0.77268861	0.1403602	0.080596204	0.022993915	0.029587395	-0.0078983169	0.78035672	0.17124284	-0.0060678893	-0.05348495	0.009651968	-0.056570347	0.72554242	0.10485237	0.019772938	0.18945425	0.34652284	-0.10850782	0.65481339	0.50732	0.11203766	0.17121623	0.35737344	0.014005004	0.63236594	0.48541604	-0.0092591711	0.27939671	0.71542513	-0.17467955	0.37350032	0.73738084	0.1704245	0.37166846	0.76134892	-0.15255556	0.43859207	0.78297197	0.088270877	0.22273656	0.85651741	0.013353982	0.42941389	1.2447046	-0.19329622	0.40407234	1.2355815	0.16279036	0.34532134	1.2847371	-0.025156771	0.53857765	0.9423304	-0.27217506	0.19278048	1.0129706	0.22632635	0.78006728	0.98050085	-0.20726426	0.16883529	0.80610718	0.34371056
271	1.08	0.12399694	-0.065185231	-0.037997665	0.91395667	0.14860009	0.048392742	0.028976179	0.0087368803	-0.092487991	0.77845507	0.13731787	0.079011014	0.024991346	0.030807811	-0.0080936446	0.78620705	0.16824733	-0.0075088866	-0.051667668	0.01214188	-0.056687663	0.73130751	0.10196852	0.018263253	0.19578858	0.34587061	-0.10823342	0.66258282	0.50518324	0.11078181	0.177615	0.35673383	0.014340672	0.63951458	0.4828382	-0.010754036	0.28615485	0.71452264	-0.17400168	0.38212179	0.73623163	0.17069707	0.37873755	0.76062437	-0.15233075	0.44669737	0.78251137	0.088605781	0.22956233	0.85594124	0.014471161	0.43621243	1.244067	-0.19290014	0.41185084	1.2344222	0.16331417	0.3524169	1.2839913	-0.024343007	0.54757261	0.94230278	-0.27076735	0.19943788	1.013164	0.22733799	0.78859206	0.98276735	-0.20571375	0.17377397	0.80619802	0.34393162
272	1.084	0.12410561	-0.065154951	-0.037911086	0.9191384	0.14474489	0.047054026	0.030767027	0.010093912	-0.092717103	0.78360426	0.13395632	0.077504281	0.027111163	0.032135141	-0.0082405111	0.79153891	0.16494657	-0.0088853143	-0.049758145	0.014787395	-0.056761299	0.73653149	0.098816536	0.016756579	0.20224688	0.34521491	-0.10802365	0.6701713	0.50296377	0.10948952	0.18422782	0.35613352	0.014543979	0.64655254	0.48029859	-0.012251818	0.293003	0.71364039	-0.17337302	0.39078952	0.73519084	0.17086682	0.38586874	0.75987709	-0.15212359	0.45488269	0.78203221	0.088891516	0.23647362	0.85532993	0.015606556	0.44298719	1.2434671	-0.19247947	0.41966696	1.2332627	0.16387116	0.35943463	1.2833519	-0.023391744	0.55645827	0.94229955	-0.26933827	0.20642492	1.0131825	0.22822465	0.79701999	0.98485968	-0.20416349	0.1788131	0.80620417	0.34409179
273	1.088	0.12421472	-0.065129255	-0.037845458	0.92377025	0.14046822	0.04580652	0.032668401	0.011502854	-0.092947173	0.78816206	0.13031971	0.07610443	0.029346149	0.033568361	-0.0083401725	0.79637631	0.16133513	-0.010206836	-0.047736097	0.017570006	-0.056766299	0.74128049	0.095379256	0.015250564	0.20880105	0.34456698	-0.10789869	0.67761571	0.50061971	0.10817249	0.19105028	0.35561185	0.014576048	0.65348624	0.47776942	-0.013705698	0.2999385	0.71278542	-0.17280974	0.39951027	0.73427199	0.17093455	0.39305761	0.7591174	-0.15194238	0.46314928	0.78151613	0.089114984	0.24357126	0.85465429	0.016692251	0.44974292	1.2429134	-0.19203635	0.42753201	1.2321094	0.16446446	0.36642871	1.2827941	-0.022340741	0.56522961	0.94232797	-0.26791171	0.21372019	1.013054	0.22900169	0.80535597	0.9867686	-0.20262428	0.18401087	0.80612507	0.34419725
274	1.092	0.12435487	-0.065094509	-0.037789153	0.92789127	0.13583721	0.044625862	0.034688722	0.012957417	-0.093112917	0.79219133	0.12642162	0.074811907	0.031712935	0.035074276	-0.0084297125	0.80073182	0.15739665	-0.011460921	-0.045562902	0.020467239	-0.056718827	0.74552184	0.091657362	0.013807945	0.21543034	0.34393201	-0.10786963	0.68493331	0.49808492	0.10680885	0.19806053	0.35511654	0.014517016	0.66029084	0.47522476	-0.015078954	0.30696024	0.71196465	-0.17230539	0.40831279	0.73348926	0.17091601	0.40031573	0.75835136	-0.15179789	0.47150094	0.78093981	0.089257348	0.25088602	0.8539117	0.017685169	0.45648799	1.2424081	-0.1915728	0.4354581	1.2309693	0.16509924	0.37350777	1.2822505	-0.021264988	0.57388731	0.9423932	-0.26650358	0.22119733	1.0128249	0.22972852	0.8135954	0.98849391	-0.20109874	0.18945863	0.80596175	0.3442579
275	1.096	0.12455223	-0.065036895	-0.037727424	0.931534	0.13090816	0.043491132	0.036811346	0.014462095	-0.093153975	0.7957411	0.12227294	0.073616368	0.034243354	0.036617373	-0.008553861	0.80460125	0.15310608	-0.012617916	-0.043211008	0.023453945	-0.056662538	0.74918343	0.087662587	0.012517982	0.22213381	0.34330589	-0.1079394	0.6920888	0.49528943	0.10540116	0.20523355	0.35455521	0.014489908	0.66690093	0.47264125	-0.016374951	0.31406519	0.71117758	-0.17184641	0.41722829	0.73285043	0.17083235	0.40765959	0.75757469	-0.1516974	0.47996087	0.78029368	0.089307063	0.25842685	0.85310746	0.01856192	0.46322769	1.2419485	-0.19108694	0.44344544	1.2298497	0.16577166	0.3807298	1.2816801	-0.020210243	0.58242822	0.94249873	-0.26510764	0.22874336	1.0125338	0.23044829	0.82173099	0.99006313	-0.19957817	0.19521006	0.80572057	0.34428415
